<svg width="60" height="60" viewBox="0 0 60 60" fill="none" xmlns="http://www.w3.org/2000/svg">
<rect x="0.5" y="0.5" width="59" height="59" rx="7.5" stroke="#E9E9E9"/>
<g clip-path="url(#clip0_108_3200)">
<path d="M37.938 26.0009H39C39.5304 26.0009 40.0391 26.2116 40.4142 26.5867C40.7893 26.9617 41 27.4704 41 28.0009V32.0009C41 32.5313 40.7893 33.04 40.4142 33.4151C40.0391 33.7902 39.5304 34.0009 39 34.0009H37.938C37.6942 35.9342 36.7533 37.7121 35.2917 39.0009C33.8302 40.2897 31.9486 41.0008 30 41.0009V39.0009C31.5913 39.0009 33.1174 38.3687 34.2426 37.2435C35.3679 36.1183 36 34.5922 36 33.0009V27.0009C36 25.4096 35.3679 23.8835 34.2426 22.7582C33.1174 21.633 31.5913 21.0009 30 21.0009C28.4087 21.0009 26.8826 21.633 25.7574 22.7582C24.6321 23.8835 24 25.4096 24 27.0009V34.0009H21C20.4696 34.0009 19.9609 33.7902 19.5858 33.4151C19.2107 33.04 19 32.5313 19 32.0009V28.0009C19 27.4704 19.2107 26.9617 19.5858 26.5867C19.9609 26.2116 20.4696 26.0009 21 26.0009H22.062C22.306 24.0678 23.2471 22.2901 24.7086 21.0016C26.1701 19.713 28.0516 19.002 30 19.002C31.9484 19.002 33.8299 19.713 35.2914 21.0016C36.7529 22.2901 37.694 24.0678 37.938 26.0009ZM21 28.0009V32.0009H22V28.0009H21ZM38 28.0009V32.0009H39V28.0009H38ZM25.76 33.7859L26.82 32.0899C27.7731 32.6869 28.8754 33.0027 30 33.0009C31.1246 33.0027 32.2269 32.6869 33.18 32.0899L34.24 33.7859C32.9693 34.582 31.4995 35.0032 30 35.0009C28.5005 35.0032 27.0307 34.582 25.76 33.7859Z" fill="#161616"/>
</g>
<defs>
<clipPath id="clip0_108_3200">
<rect width="24" height="24" fill="white" transform="translate(18 18)"/>
</clipPath>
</defs>
</svg>
