<svg width="60" height="60" viewBox="0 0 60 60" fill="none" xmlns="http://www.w3.org/2000/svg">
<rect x="0.5" y="0.5" width="59" height="59" rx="7.5" stroke="#E9E9E9"/>
<g clip-path="url(#clip0_108_3192)">
<path d="M35 33.246V40.118C35 40.2064 34.9766 40.2933 34.932 40.3697C34.8875 40.4462 34.8235 40.5094 34.7465 40.5531C34.6696 40.5967 34.5824 40.6191 34.4939 40.618C34.4055 40.6169 34.3189 40.5924 34.243 40.547L30 38.001L25.757 40.547C25.681 40.5925 25.5944 40.617 25.5058 40.618C25.4173 40.6191 25.33 40.5965 25.253 40.5528C25.176 40.5091 25.112 40.4457 25.0676 40.3691C25.0231 40.2925 24.9998 40.2055 25 40.117V33.247C23.7061 32.211 22.766 30.7988 22.3095 29.2055C21.8529 27.6121 21.9026 25.9163 22.4515 24.3524C23.0004 22.7885 24.0216 21.4337 25.3738 20.4752C26.726 19.5168 28.3425 19.002 30 19.002C31.6575 19.002 33.274 19.5168 34.6262 20.4752C35.9784 21.4337 36.9996 22.7885 37.5485 24.3524C38.0974 25.9163 38.1471 27.6121 37.6905 29.2055C37.234 30.7988 36.2939 32.211 35 33.247V33.246ZM27 34.419V37.469L30 35.669L33 37.469V34.419C32.0468 34.8044 31.0282 35.0021 30 35.001C28.9718 35.0021 27.9532 34.8044 27 34.419ZM30 33.001C31.5913 33.001 33.1174 32.3688 34.2426 31.2436C35.3679 30.1184 36 28.5922 36 27.001C36 25.4097 35.3679 23.8835 34.2426 22.7583C33.1174 21.6331 31.5913 21.001 30 21.001C28.4087 21.001 26.8826 21.6331 25.7574 22.7583C24.6321 23.8835 24 25.4097 24 27.001C24 28.5922 24.6321 30.1184 25.7574 31.2436C26.8826 32.3688 28.4087 33.001 30 33.001Z" fill="#161616"/>
</g>
<defs>
<clipPath id="clip0_108_3192">
<rect width="24" height="24" fill="white" transform="translate(18 18)"/>
</clipPath>
</defs>
</svg>
