<svg width="60" height="60" viewBox="0 0 60 60" fill="none" xmlns="http://www.w3.org/2000/svg">
<rect x="0.5" y="0.5" width="59" height="59" rx="7.5" stroke="#E9E9E9"/>
<g clip-path="url(#clip0_108_3171)">
<path d="M25 23V20C25 19.7348 25.1054 19.4804 25.2929 19.2929C25.4804 19.1054 25.7348 19 26 19H34C34.2652 19 34.5196 19.1054 34.7071 19.2929C34.8946 19.4804 35 19.7348 35 20V23H39C39.2652 23 39.5196 23.1054 39.7071 23.2929C39.8946 23.4804 40 23.7348 40 24V38C40 38.2652 39.8946 38.5196 39.7071 38.7071C39.5196 38.8946 39.2652 39 39 39H21C20.7348 39 20.4804 38.8946 20.2929 38.7071C20.1054 38.5196 20 38.2652 20 38V24C20 23.7348 20.1054 23.4804 20.2929 23.2929C20.4804 23.1054 20.7348 23 21 23H25ZM22 34V37H38V34H22ZM22 32H38V25H22V32ZM27 21V23H33V21H27ZM29 29H31V31H29V29Z" fill="#161616"/>
</g>
<defs>
<clipPath id="clip0_108_3171">
<rect width="24" height="24" fill="white" transform="translate(18 18)"/>
</clipPath>
</defs>
</svg>
