<svg width="60" height="60" viewBox="0 0 60 60" fill="none" xmlns="http://www.w3.org/2000/svg">
<rect x="0.5" y="0.5" width="59" height="59" rx="7.5" stroke="#E9E9E9"/>
<g clip-path="url(#clip0_108_3207)">
<path d="M26.965 36C26.8461 36.8343 26.4302 37.5977 25.7937 38.1499C25.1571 38.7022 24.3427 39.0063 23.5 39.0063C22.6573 39.0063 21.8429 38.7022 21.2063 38.1499C20.5698 37.5977 20.1539 36.8343 20.035 36H19V24C19 23.7348 19.1054 23.4804 19.2929 23.2929C19.4804 23.1054 19.7348 23 20 23H34C34.2652 23 34.5196 23.1054 34.7071 23.2929C34.8946 23.4804 35 23.7348 35 24V26H38L41 30.056V36H38.965C38.8461 36.8343 38.4302 37.5977 37.7937 38.1499C37.1571 38.7022 36.3427 39.0063 35.5 39.0063C34.6573 39.0063 33.8429 38.7022 33.2063 38.1499C32.5698 37.5977 32.1539 36.8343 32.035 36H26.965ZM33 25H21V33.05C21.3946 32.6472 21.8806 32.3457 22.4168 32.1711C22.9529 31.9966 23.5233 31.9541 24.0794 32.0474C24.6355 32.1407 25.1608 32.3669 25.6106 32.7069C26.0604 33.0469 26.4215 33.4905 26.663 34H32.337C32.505 33.647 32.73 33.326 33 33.05V25ZM35 31H39V30.715L36.992 28H35V31ZM35.5 37C35.898 37 36.2796 36.8419 36.561 36.5605C36.8424 36.2791 37.0005 35.8975 37.0005 35.4995C37.0005 35.1015 36.8424 34.7199 36.561 34.4385C36.2796 34.1571 35.898 33.999 35.5 33.999C35.102 33.999 34.7204 34.1571 34.439 34.4385C34.1576 34.7199 33.9995 35.1015 33.9995 35.4995C33.9995 35.8975 34.1576 36.2791 34.439 36.5605C34.7204 36.8419 35.102 37 35.5 37ZM25 35.5C25 35.303 24.9612 35.108 24.8858 34.926C24.8104 34.744 24.6999 34.5786 24.5607 34.4393C24.4214 34.3001 24.256 34.1896 24.074 34.1142C23.892 34.0388 23.697 34 23.5 34C23.303 34 23.108 34.0388 22.926 34.1142C22.744 34.1896 22.5786 34.3001 22.4393 34.4393C22.3001 34.5786 22.1896 34.744 22.1142 34.926C22.0388 35.108 22 35.303 22 35.5C22 35.8978 22.158 36.2794 22.4393 36.5607C22.7206 36.842 23.1022 37 23.5 37C23.8978 37 24.2794 36.842 24.5607 36.5607C24.842 36.2794 25 35.8978 25 35.5Z" fill="#161616"/>
</g>
<defs>
<clipPath id="clip0_108_3207">
<rect width="24" height="24" fill="white" transform="translate(18 18)"/>
</clipPath>
</defs>
</svg>
