<svg width="60" height="60" viewBox="0 0 60 60" fill="none" xmlns="http://www.w3.org/2000/svg">
<rect x="0.5" y="0.5" width="59" height="59" rx="7.5" stroke="#E9E9E9"/>
<g clip-path="url(#clip0_108_3178)">
<path d="M30 19L39.5 24.5V35.5L30 41L20.5 35.5V24.5L30 19ZM30 21.311L22.5 25.653V34.347L30 38.689L37.5 34.347V25.653L30 21.311ZM30 34C28.9391 34 27.9217 33.5786 27.1716 32.8284C26.4214 32.0783 26 31.0609 26 30C26 28.9391 26.4214 27.9217 27.1716 27.1716C27.9217 26.4214 28.9391 26 30 26C31.0609 26 32.0783 26.4214 32.8284 27.1716C33.5786 27.9217 34 28.9391 34 30C34 31.0609 33.5786 32.0783 32.8284 32.8284C32.0783 33.5786 31.0609 34 30 34ZM30 32C30.5304 32 31.0391 31.7893 31.4142 31.4142C31.7893 31.0391 32 30.5304 32 30C32 29.4696 31.7893 28.9609 31.4142 28.5858C31.0391 28.2107 30.5304 28 30 28C29.4696 28 28.9609 28.2107 28.5858 28.5858C28.2107 28.9609 28 29.4696 28 30C28 30.5304 28.2107 31.0391 28.5858 31.4142C28.9609 31.7893 29.4696 32 30 32Z" fill="#161616"/>
</g>
<defs>
<clipPath id="clip0_108_3178">
<rect width="24" height="24" fill="white" transform="translate(18 18)"/>
</clipPath>
</defs>
</svg>
