<svg width="60" height="60" viewBox="0 0 60 60" fill="none" xmlns="http://www.w3.org/2000/svg">
<rect x="0.5" y="0.5" width="59" height="59" rx="7.5" stroke="#E9E9E9"/>
<g clip-path="url(#clip0_108_3185)">
<path d="M30 40C24.477 40 20 35.523 20 30C20 24.477 24.477 20 30 20C35.523 20 40 24.477 40 30C40 35.523 35.523 40 30 40ZM30 38C32.1217 38 34.1566 37.1571 35.6569 35.6569C37.1571 34.1566 38 32.1217 38 30C38 27.8783 37.1571 25.8434 35.6569 24.3431C34.1566 22.8429 32.1217 22 30 22C27.8783 22 25.8434 22.8429 24.3431 24.3431C22.8429 25.8434 22 27.8783 22 30C22 32.1217 22.8429 34.1566 24.3431 35.6569C25.8434 37.1571 27.8783 38 30 38ZM25 27L28 23.5L31 27H29V31H27V27H25ZM35 33L32 36.5L29 33H31V29H33V33H35Z" fill="#161616"/>
</g>
<defs>
<clipPath id="clip0_108_3185">
<rect width="24" height="24" fill="white" transform="translate(18 18)"/>
</clipPath>
</defs>
</svg>
